<svg width="68" height="47" viewBox="0 0 68 47" fill="none" xmlns="http://www.w3.org/2000/svg">
<path d="M40.9468 6.46884C40.566 6.46884 40.2113 6.58436 39.9163 6.78185C39.6624 6.06268 38.9754 5.54472 38.1689 5.54472C37.788 5.54472 37.4333 5.66024 37.1384 5.85773C36.8845 5.13856 36.1974 4.6206 35.3909 4.6206C35.0549 4.6206 34.7375 4.71003 34.465 4.87026V1.84824C34.4612 0.827237 33.6323 0 32.6093 0C31.5862 0 30.7573 0.827237 30.7573 1.84824V12.6545L28.2109 11.3838C27.8263 11.1938 27.3969 11.0932 26.9675 11.0932C25.993 11.0894 25.2014 11.8831 25.2014 12.8632C25.2014 13.3364 25.3844 13.7798 25.7204 14.1115L31.7094 20.0884C33.0611 21.4411 34.8645 22.1826 36.7799 22.1826C40.0993 22.1826 42.7988 19.4885 42.7988 16.1758V8.31708C42.7988 7.29981 41.9662 6.46884 40.9468 6.46884ZM41.8728 16.1758C41.8728 18.978 39.5877 21.2585 36.7799 21.2585C35.1109 21.2585 33.5465 20.6101 32.3666 19.4326L26.3738 13.4556C26.2133 13.2991 26.1274 13.0867 26.1274 12.8557C26.1274 12.3899 26.5045 12.0136 26.9712 12.0136C27.2587 12.0136 27.5425 12.0806 27.8001 12.2073L31.0149 13.8134C31.1568 13.8842 31.3286 13.8767 31.4667 13.7947C31.6011 13.709 31.687 13.56 31.687 13.4035V1.85197C31.687 1.34147 32.1015 0.927847 32.613 0.927847C33.1245 0.927847 33.539 1.34147 33.539 1.85197V10.6311C33.539 10.8845 33.7481 11.0932 34.002 11.0932C34.2559 11.0932 34.465 10.8845 34.465 10.6311V6.46884C34.465 5.95834 34.8794 5.54472 35.3909 5.54472C35.9025 5.54472 36.3169 5.95834 36.3169 6.46884V10.6274C36.3169 10.8808 36.526 11.0894 36.7799 11.0894C37.0338 11.0894 37.2429 10.8808 37.2429 10.6274V7.39296C37.2429 6.88246 37.6574 6.46884 38.1689 6.46884C38.6804 6.46884 39.0949 6.88246 39.0949 7.39296V10.6274C39.0949 10.8808 39.304 11.0894 39.5579 11.0894C39.8118 11.0894 40.0209 10.8808 40.0209 10.6274V8.31708C40.0209 7.80658 40.4353 7.39296 40.9468 7.39296C41.4584 7.39296 41.8728 7.80658 41.8728 8.31708V16.1758Z" fill="white"/>
<path d="M58.7506 3.45492L66.3875 11.0916L58.7506 18.7282" stroke="white" stroke-linecap="round"/>
<path d="M9.24918 3.45492L1.6123 11.0916L9.24918 18.7282" stroke="white" stroke-linecap="round"/>
<path d="M15.3984 39.7766C15.4401 40.2454 15.5573 40.6047 15.75 40.8547C16.1042 41.3079 16.7188 41.5344 17.5938 41.5344C18.1146 41.5344 18.5729 41.4224 18.9688 41.1985C19.3646 40.9693 19.5625 40.6178 19.5625 40.1438C19.5625 39.7844 19.4036 39.511 19.0859 39.3235C18.8828 39.2089 18.4818 39.0761 17.8828 38.925L16.7656 38.6438C16.0521 38.4667 15.526 38.2688 15.1875 38.05C14.5833 37.6698 14.2812 37.1438 14.2812 36.4719C14.2812 35.6803 14.5651 35.0396 15.1328 34.55C15.7057 34.0605 16.474 33.8157 17.4375 33.8157C18.6979 33.8157 19.6068 34.1855 20.1641 34.925C20.513 35.3938 20.6823 35.899 20.6719 36.4407H19.3438C19.3177 36.123 19.2057 35.8339 19.0078 35.5735C18.6849 35.2037 18.125 35.0188 17.3281 35.0188C16.7969 35.0188 16.3932 35.1204 16.1172 35.3235C15.8464 35.5266 15.7109 35.7948 15.7109 36.1282C15.7109 36.4928 15.8906 36.7844 16.25 37.0032C16.4583 37.1334 16.7656 37.248 17.1719 37.3469L18.1016 37.5735C19.112 37.8183 19.7891 38.0553 20.1328 38.2844C20.6797 38.6438 20.9531 39.2089 20.9531 39.9797C20.9531 40.7245 20.6693 41.3678 20.1016 41.9094C19.5391 42.4511 18.6797 42.7219 17.5234 42.7219C16.2786 42.7219 15.3958 42.4407 14.875 41.8782C14.3594 41.3105 14.0833 40.6099 14.0469 39.7766H15.3984ZM23.2109 34.0344L24.8203 40.6282L26.4531 34.0344H28.0312L29.6719 40.5891L31.3828 34.0344H32.7891L30.3594 42.4016H28.8984L27.1953 35.925L25.5469 42.4016H24.0859L21.6719 34.0344H23.2109ZM34.125 34.0735H35.5547V42.4016H34.125V34.0735ZM34.125 30.925H35.5547V32.5188H34.125V30.925ZM41.2188 41.4563C41.875 41.4563 42.4193 41.1829 42.8516 40.636C43.2891 40.0839 43.5078 39.261 43.5078 38.1672C43.5078 37.5006 43.4115 36.9277 43.2188 36.4485C42.8542 35.5266 42.1875 35.0657 41.2188 35.0657C40.2448 35.0657 39.5781 35.5527 39.2188 36.5266C39.026 37.0474 38.9297 37.7089 38.9297 38.511C38.9297 39.1568 39.026 39.7063 39.2188 40.1594C39.5833 41.024 40.25 41.4563 41.2188 41.4563ZM37.5781 34.0735H38.9453V35.1829C39.2266 34.8027 39.5339 34.5084 39.8672 34.3C40.3411 33.9875 40.8984 33.8313 41.5391 33.8313C42.487 33.8313 43.2917 34.1959 43.9531 34.925C44.6146 35.649 44.9453 36.6855 44.9453 38.0344C44.9453 39.8573 44.4688 41.1594 43.5156 41.9407C42.9115 42.4355 42.2083 42.6829 41.4062 42.6829C40.776 42.6829 40.2474 42.5448 39.8203 42.2688C39.5703 42.1125 39.2917 41.8443 38.9844 41.4641V45.7375H37.5781V34.0735ZM50.0781 33.8469C50.6719 33.8469 51.2474 33.9875 51.8047 34.2688C52.362 34.5448 52.7865 34.9042 53.0781 35.3469C53.3594 35.7688 53.5469 36.261 53.6406 36.8235C53.724 37.2089 53.7656 37.8235 53.7656 38.6672H47.6328C47.6589 39.5162 47.8594 40.1985 48.2344 40.7141C48.6094 41.2245 49.1901 41.4797 49.9766 41.4797C50.7109 41.4797 51.2969 41.2375 51.7344 40.7532C51.9844 40.4719 52.1615 40.1464 52.2656 39.7766H53.6484C53.612 40.0839 53.4896 40.4277 53.2812 40.8079C53.0781 41.1829 52.849 41.4902 52.5938 41.7297C52.1667 42.1464 51.638 42.4277 51.0078 42.5735C50.6693 42.6568 50.2865 42.6985 49.8594 42.6985C48.8177 42.6985 47.9349 42.3209 47.2109 41.5657C46.487 40.8053 46.125 39.7428 46.125 38.3782C46.125 37.0344 46.4896 35.9433 47.2188 35.1047C47.9479 34.2662 48.901 33.8469 50.0781 33.8469ZM52.3203 37.55C52.263 36.9407 52.1302 36.4537 51.9219 36.0891C51.5365 35.412 50.8932 35.0735 49.9922 35.0735C49.3464 35.0735 48.8047 35.3079 48.3672 35.7766C47.9297 36.2402 47.6979 36.8313 47.6719 37.55H52.3203Z" fill="white"/>
</svg>
